<!-- sprite.svg -->
<svg xmlns="http://www.w3.org/2000/svg" xmlns:xlink="http://www.w3.org/1999/xlink">
  <defs>
  <symbol class='spinner_P7sC' id="loader">
      <path d="M10.14,1.16a11,11,0,0,0-9,8.92A1.59,1.59,0,0,0,2.46,12,1.52,1.52,0,0,0,4.11,10.7a8,8,0,0,1,6.66-6.61A1.42,1.42,0,0,0,12,2.69h0A1.57,1.57,0,0,0,10.14,1.16Z" class="spinner_P7sC" />
    </symbol>
    <symbol viewBox="0 0 24 24" id="lock">
      <path d="M0 0h24v24H0V0zm22.034 18.276c-.175-1.095-.888-2.015-3.003-2.873-.736-.345-1.554-.585-1.797-1.14-.091-.33-.105-.51-.046-.705.15-.646.915-.84 1.515-.66.39.12.75.42.976.9 1.034-.676 1.034-.676 1.755-1.125-.27-.42-.404-.601-.586-.78-.63-.705-1.469-1.065-2.834-1.034l-.705.089c-.676.165-1.32.525-1.71 1.005-1.14 1.291-.811 3.541.569 4.471 1.365 1.02 3.361 1.244 3.616 2.205.24 1.17-.87 1.545-1.966 1.41-.811-.18-1.26-.586-1.755-1.336l-1.83 1.051c.21.48.45.689.81 1.109 1.74 1.756 6.09 1.666 6.871-1.004.029-.09.24-.705.074-1.65l.046.067zm-8.983-7.245h-2.248c0 1.938-.009 3.864-.009 5.805 0 1.232.063 2.363-.138 2.711-.33.689-1.18.601-1.566.48-.396-.196-.597-.466-.83-.855-.063-.105-.11-.196-.127-.196l-1.825 1.125c.305.63.75 1.172 1.324 1.517.855.51 2.004.675 3.207.405.783-.226 1.458-.691 1.811-1.411.51-.93.402-2.07.397-3.346.012-2.054 0-4.109 0-6.179l.004-.056z" />
    </symbol>
    <symbol viewBox="0 0 24 24" id="moon">
        <path d="M12 3a6 6 0 0 0 9 9 9 9 0 1 1-9-9Z"></path>
    </symbol>
    <symbol viewBox="0 0 24 24" id="sun">
      <circle cx="12" cy="12" r="4"></circle>
      <path d="M12 2v2"></path>
      <path d="M12 20v2"></path>
      <path d="m4.93 4.93 1.41 1.41"></path>
      <path d="m17.66 17.66 1.41 1.41"></path>
      <path d="M2 12h2"></path>
      <path d="M20 12h2"></path>
      <path d="m6.34 17.66-1.41 1.41"></path>
      <path d="m19.07 4.93-1.41 1.41"></path>
    </symbol>
    <symbol viewBox="0 0 24 24" id="info">
      <path d="M9.99903 0.0140991C4.47622 0.0140991 -0.000976562 4.4911 -0.000976562 10.0141C-0.000976562 15.5371 4.47622 20.0141 9.99903 20.0141C15.5218 20.0141 19.999 15.5371 19.999 10.0141C19.999 4.4911 15.5218 0.0140991 9.99903 0.0140991ZM9.99903 5.0141C10.5513 5.0141 10.999 5.4621 10.999 6.0141C10.999 6.5661 10.5513 7.0141 9.99903 7.0141C9.44673 7.0141 8.99903 6.5661 8.99903 6.0141C8.99903 5.4621 9.44673 5.0141 9.99903 5.0141ZM9.99903 8.0141C10.5513 8.0141 10.999 8.4621 10.999 9.0141V14.0141C10.999 14.5661 10.5513 15.0141 9.99903 15.0141C9.44673 15.0141 8.99903 14.5661 8.99903 14.0141V9.0141C8.99903 8.4621 9.44673 8.0141 9.99903 8.0141Z"></path>
    </symbol>
    <symbol viewBox="0 0 24 24" id="stats">
      <path d="M16.0142 4.9978C14.9092 4.9978 14.0142 5.8928 14.0142 6.9978V14.9978C14.0142 16.1028 14.9092 16.9978 16.0142 16.9978H18.0142C19.1192 16.9978 20.0142 16.1028 20.0142 14.9978V6.9978C20.0142 5.8928 19.1192 4.9978 18.0142 4.9978H16.0142ZM9.01416 0.997803C7.90916 0.997803 7.01416 1.8928 7.01416 2.9978V14.9978C7.01416 16.1028 7.90916 16.9978 9.01416 16.9978H11.0142C12.1192 16.9978 13.0142 16.1028 13.0142 14.9978V2.9978C13.0142 1.8928 12.1192 0.997803 11.0142 0.997803H9.01416ZM2.01416 8.9978C0.90916 8.9978 0.0141602 9.8928 0.0141602 10.9978V14.9978C0.0141602 16.1028 0.90916 16.9978 2.01416 16.9978H4.01416C5.11916 16.9978 6.01416 16.1028 6.01416 14.9978V10.9978C6.01416 9.8928 5.11916 8.9978 4.01416 8.9978H2.01416Z"></path>
    </symbol>
    <symbol viewBox="0 0 24 24" id='settings'>
      <path d="M6.96899 0.0446432C5.55099 0.493643 4.328 1.22865 3.25 2.23165C2.917 2.54265 2.81501 3.04965 3.03101 3.45065C3.83201 4.93165 2.99399 6.51565 1.18799 6.60665C0.744988 6.62965 0.354 6.95664 0.25 7.38764C0.071 8.13264 0 8.75665 0 9.57564C0 10.2626 0.0739941 11.0396 0.218994 11.7316C0.308994 12.1636 0.685 12.4746 1.125 12.5136C2.943 12.6706 3.84301 14.0566 3.03101 15.8256C2.85101 16.2186 2.933 16.6886 3.25 16.9816C4.312 17.9646 5.53199 18.6566 6.96899 19.1066C7.37899 19.2356 7.84199 19.0806 8.09399 18.7316C9.20599 17.1936 10.819 17.1876 11.875 18.7316C12.124 19.0956 12.58 19.2706 13 19.1376C14.387 18.7016 15.679 17.9586 16.75 16.9816C17.08 16.6816 17.167 16.1946 16.969 15.7946C16.137 14.1156 17.094 12.5736 18.812 12.5446C19.268 12.5366 19.674 12.2366 19.781 11.7946C19.954 11.0776 20 10.4526 20 9.57564C20 8.82164 19.911 8.07865 19.75 7.35665C19.648 6.90065 19.249 6.57665 18.781 6.57565C17.09 6.57265 16.142 4.91065 16.969 3.45065C17.199 3.04365 17.127 2.54565 16.781 2.23165C15.691 1.24165 14.362 0.468643 12.969 0.0446432C12.541 -0.0853568 12.086 0.074649 11.844 0.450649C10.878 1.95065 9.074 1.97765 8.125 0.481655C7.882 0.0986549 7.40099 -0.0933568 6.96899 0.0446432ZM10 5.57565C12.209 5.57565 14 7.36665 14 9.57564C14 11.7846 12.209 13.5756 10 13.5756C7.791 13.5756 6 11.7846 6 9.57564C6 7.36665 7.791 5.57565 10 5.57565Z"></path>
    </symbol>
    <symbol viewBox="0 0 24 24" id='profile'>
      <path  style='fill-rule:nonzero;fill-opacity:1;' d="M 16.390625 11.214844 L 14.023438 11.214844 C 15.21875 9.734375 15.988281 7.75 15.988281 5.96875 C 15.988281 2.679688 13.308594 0 10.015625 0 C 6.726562 0 4.046875 2.679688 4.046875 5.96875 C 4.046875 7.75 4.8125 9.734375 6.011719 11.214844 L 3.609375 11.214844 C 2.519531 11.214844 1.515625 11.761719 0.921875 12.679688 C 0.507812 13.328125 0.417969 14.460938 0.664062 16.046875 L 0.976562 18.082031 C 1.140625 19.15625 2.121094 20 3.210938 20 L 16.789062 20 C 17.878906 20 18.859375 19.15625 19.023438 18.082031 L 19.335938 16.046875 C 19.582031 14.460938 19.492188 13.328125 19.078125 12.679688 C 18.484375 11.761719 17.480469 11.214844 16.390625 11.214844 Z M 18.234375 17.960938 C 18.132812 18.632812 17.46875 19.203125 16.789062 19.203125 L 3.210938 19.203125 C 2.53125 19.203125 1.867188 18.632812 1.765625 17.960938 L 1.453125 15.925781 C 1.246094 14.578125 1.292969 13.578125 1.59375 13.113281 C 2.039062 12.425781 2.792969 12.011719 3.609375 12.011719 L 6.753906 12.011719 C 7.703125 12.894531 8.828125 13.457031 10.015625 13.457031 C 11.207031 13.457031 12.332031 12.894531 13.277344 12.011719 L 16.390625 12.011719 C 17.207031 12.011719 17.960938 12.425781 18.40625 13.113281 C 18.707031 13.578125 18.753906 14.578125 18.546875 15.925781 Z M 15.230469 5.96875 C 15.230469 7.765625 14.328125 9.847656 13.007812 11.214844 C 12.871094 11.355469 12.730469 11.488281 12.585938 11.613281 C 12.417969 11.757812 12.246094 11.894531 12.066406 12.011719 C 11.429688 12.441406 10.734375 12.699219 10.015625 12.699219 C 9.300781 12.699219 8.605469 12.441406 7.96875 12.011719 C 7.789062 11.894531 7.617188 11.757812 7.449219 11.613281 C 7.304688 11.488281 7.164062 11.355469 7.027344 11.214844 C 5.707031 9.847656 4.804688 7.765625 4.804688 5.96875 C 4.804688 3.097656 7.144531 0.757812 10.015625 0.757812 C 12.890625 0.757812 15.230469 3.097656 15.230469 5.96875 Z M 15.230469 5.96875 "/>
    </symbol>
  </defs>
</svg>